<svg xmlns="http://www.w3.org/2000/svg" width="96" height="96" viewBox="0 0 96 96" shape-rendering="crispEdges"><rect width="96" height="96" fill="none"/><g><rect x="30" y="74" width="14" height="8" fill="#3a2a24"/><rect x="52" y="74" width="14" height="8" fill="#3a2a24"/><rect x="34" y="52" width="28" height="24" fill="#d8e3f0"/><rect x="38" y="46" width="20" height="10" fill="#8798ad"/><rect x="37" y="24" width="22" height="24" fill="#f0c49c"/><rect x="33" y="20" width="30" height="12" fill="#9a623e"/><rect x="38" y="16" width="20" height="8" fill="#6f452f"/><rect x="39" y="32" width="4" height="4" fill="#34251f"/><rect x="53" y="32" width="4" height="4" fill="#34251f"/><rect x="44" y="40" width="8" height="3" fill="#b06f62"/><rect x="27" y="55" width="10" height="20" fill="#f0c49c"/><rect x="59" y="55" width="10" height="20" fill="#f0c49c"/><rect x="62" y="50" width="5" height="30" fill="#d7dee8" transform="rotate(-35 64 65)"/><rect x="66" y="43" width="4" height="22" fill="#f6f9fb" transform="rotate(-35 68 54)"/><rect x="34" y="56" width="28" height="4" fill="#4f7ab8"/><rect x="42" y="60" width="12" height="16" fill="#6f8db2"/></g></svg>